# xmcd
#
# Track frame offsets:
#	150
#	14305
#	30685
#	46905
#	61285
#	78157
#	93552
#	109135
#	121857
#	136035
#	153332
#	165497
#	179912
#	194229
#	208647
#	222423
#	238206
#	255363
#	269468
#	285117
#	298341
#	315396
#	330304
#	346155
#
# Disc length: 4795 seconds
#
# Revision: 0
# Processed by: cddbd v1.5.2PL0 Copyright (c) Steve Scherf et al.
# Submitted via: EasyCDDAExtractor 12.0.0.1
#
DISCID=5b12b918
DTITLE=Rod Stewart - Thanks for the Memory: The Great American Songbook, Volum
DTITLE=e IV
DYEAR=2005
DGENRE=Blues
TTITLE0=I've Got a Crush on You
TTITLE1=I Wish You Love
TTITLE2=You Send Me
TTITLE3=Long Ago and Far Away
TTITLE4=Makin' Whoopee
TTITLE5=My One and Only Love
TTITLE6=Taking a Chance on Love
TTITLE7=My Funny Valentine
TTITLE8=I've Got My Love to Keep Me Warm
TTITLE9=Nevertheless
TTITLE10=Blue Skies
TTITLE11=Let's Fall in Love
TTITLE12=Thanks for the Memory
TTITLE13=Smile
TTITLE14=My Heart Stood Still
TTITLE15=Someone To Watch Over Me
TTITLE16=As Time Goes By
TTITLE17=I Only Have Eyes For You
TTITLE18=Crazy She Calls Me
TTITLE19=Our Love Is Here To Stay
TTITLE20=These Foolish Things
TTITLE21=The Very Thought Of You
TTITLE22=Moonglow
TTITLE23=The Nearness Of You
EXTD=
EXTT0=
EXTT1=
EXTT2=
EXTT3=
EXTT4=
EXTT5=
EXTT6=
EXTT7=
EXTT8=
EXTT9=
EXTT10=
EXTT11=
EXTT12=
EXTT13=
EXTT14=
EXTT15=
EXTT16=
EXTT17=
EXTT18=
EXTT19=
EXTT20=
EXTT21=
EXTT22=
EXTT23=
PLAYORDER=
